<mxfile host="app.diagrams.net" modified="2024-05-04T10:09:35.470Z" agent="Mozilla/5.0 (Windows NT 10.0; Win64; x64) AppleWebKit/537.36 (KHTML, like Gecko) Chrome/124.0.0.0 Safari/537.36" etag="Tx0oV5mXDZICAEC3fdXB" version="24.3.1" type="device">
  <diagram name="PÃ¡gina-1" id="MhSPWuC_ZOSB0VklC2l5">
    <mxGraphModel dx="1434" dy="784" grid="1" gridSize="10" guides="1" tooltips="1" connect="1" arrows="1" fold="1" page="0" pageScale="1" pageWidth="850" pageHeight="1100" math="0" shadow="0">
      <root>
        <mxCell id="0" />
        <mxCell id="1" parent="0" />
        <mxCell id="XDepgYJrY--5GPyEYPza-1" value="double base;&lt;div&gt;double altura;&lt;/div&gt;" style="rounded=0;whiteSpace=wrap;html=1;labelBackgroundColor=none;fillColor=#56517E;strokeColor=#EEEEEE;fontColor=#FFFFFF;" vertex="1" parent="1">
          <mxGeometry x="320" y="210" width="160" height="110" as="geometry" />
        </mxCell>
        <mxCell id="XDepgYJrY--5GPyEYPza-2" value="&lt;font style=&quot;vertical-align: inherit;&quot;&gt;&lt;font style=&quot;vertical-align: inherit;&quot;&gt;AreaTringulo&lt;/font&gt;&lt;/font&gt;" style="rounded=0;whiteSpace=wrap;html=1;labelBackgroundColor=none;fillColor=#56517E;strokeColor=#EEEEEE;fontColor=#FFFFFF;" vertex="1" parent="1">
          <mxGeometry x="320" y="190" width="160" height="50" as="geometry" />
        </mxCell>
        <mxCell id="XDepgYJrY--5GPyEYPza-5" value="calcularArea();" style="rounded=0;whiteSpace=wrap;html=1;labelBackgroundColor=none;fillColor=#56517E;strokeColor=#EEEEEE;fontColor=#FFFFFF;" vertex="1" parent="1">
          <mxGeometry x="320" y="290" width="160" height="50" as="geometry" />
        </mxCell>
      </root>
    </mxGraphModel>
  </diagram>
</mxfile>
